<?xml version="1.0" encoding="UTF-8"?>
<svg viewBox="0 0 442 270" xmlns="http://www.w3.org/2000/svg" xmlns:xlink="http://www.w3.org/1999/xlink">
<style type="text/css">.st0{fill:#73d46c;}
				.st1{fill-rule:evenodd;clip-rule:evenodd;fill:#dedede;}
				.st2{fill-rule:evenodd;clip-rule:evenodd;fill:#73d46c;}
				.st3{clip-path:url(#XMLID_00000054987352005149188320000003494713595771980705_);}
				.st4{fill:none;}
				.st5{fill:url(#d);}
				.st6{fill:url(#SVGID_00000009553424944298889640000007685893562321890237_);}
				.st7{fill:url(#SVGID_00000033369464136719657140000017416367918024853154_);}
				.st8{fill:url(#SVGID_00000180345280277610698580000017445807768198404232_);}
				.st9{fill:url(#SVGID_00000008855855921557745220000011967273280249574544_);}
				.st10{fill:url(#SVGID_00000047753584418496020000000017109167235562897578_);}</style>
<path class="st0" d="m218.57 270.83c-1.46 0-2.91-0.38-4.19-1.12l-13.35-7.89c-1.99-1.11-1.02-1.51-0.36-1.74 2.66-0.92 3.2-1.13 6.04-2.74 0.3-0.17 0.69-0.1 0.99 0.08l10.25 6.09c0.37 0.21 0.9 0.21 1.24 0l39.98-23.06c0.37-0.21 0.61-0.64 0.61-1.08v-46.11c0-0.45-0.24-0.87-0.62-1.1l-39.96-23.04c-0.37-0.22-0.86-0.22-1.23 0l-39.95 23.05c-0.39 0.22-0.63 0.66-0.63 1.09v46.11c0 0.44 0.25 0.86 0.63 1.07l10.95 6.32c5.94 2.97 9.58-0.53 9.58-4.04v-45.53c0-0.64 0.52-1.15 1.16-1.15h5.07c0.63 0 1.16 0.51 1.16 1.15v45.53c0 7.93-4.32 12.47-11.84 12.47-2.31 0-4.13 0-9.21-2.5l-10.48-6.03c-2.59-1.5-4.19-4.29-4.19-7.29v-46.11c0-3 1.6-5.79 4.19-7.28l39.98-23.09c2.53-1.43 5.89-1.43 8.4 0l39.98 23.09c2.59 1.5 4.2 4.29 4.2 7.28v46.11c0 3-1.61 5.78-4.2 7.29l-39.98 23.07c-1.29 0.72-2.74 1.1-4.22 1.1z"/>
<path class="st0" d="m230.92 239.06c-17.49 0-21.16-8.03-21.16-14.76 0-0.64 0.51-1.15 1.16-1.15h5.17c0.58 0 1.06 0.41 1.15 0.98 0.78 5.26 3.11 7.91 13.69 7.91 8.42 0 12.01-1.9 12.01-6.37 0-2.57-1.02-4.49-14.11-5.77-10.94-1.08-17.7-3.5-17.7-12.24 0-8.06 6.8-12.87 18.2-12.87 12.81 0 19.14 4.44 19.95 13.98 0.03 0.33-0.09 0.64-0.31 0.89-0.22 0.23-0.52 0.37-0.85 0.37h-5.19c-0.54 0-1.01-0.38-1.12-0.9-1.24-5.53-4.27-7.3-12.49-7.3-9.2 0-10.26 3.2-10.26 5.6 0 2.91 1.26 3.75 13.68 5.4 12.29 1.62 18.12 3.92 18.12 12.55-0.01 8.7-7.27 13.68-19.94 13.68z"/>
<path class="st0" d="m288.56 190.7c0 4.24-3.47 7.7-7.7 7.7-4.2 0-7.7-3.42-7.7-7.7 0-4.36 3.59-7.7 7.7-7.7 4.16 0 7.7 3.34 7.7 7.7zm-14.16-0.02c0 3.59 2.89 6.48 6.44 6.48 3.59 0 6.48-2.95 6.48-6.48 0-3.59-2.93-6.44-6.48-6.44-3.51 0.01-6.44 2.82-6.44 6.44zm3.56-4.3h2.98c1.02 0 3.02 0 3.02 2.28 0 1.59-1.02 1.91-1.63 2.12 1.18 0.08 1.26 0.86 1.43 1.96 0.08 0.69 0.21 1.87 0.45 2.28h-1.83c-0.04-0.41-0.33-2.61-0.33-2.73-0.12-0.49-0.29-0.73-0.9-0.73h-1.51v3.46h-1.67v-8.64zm1.64 3.79h1.34c1.1 0 1.3-0.77 1.3-1.22 0-1.18-0.82-1.18-1.26-1.18h-1.38v2.4z"/>
<path class="st1" d="m94.77 90.42c0-1.84-0.97-3.53-2.56-4.45l-42.39-24.38c-0.72-0.42-1.52-0.64-2.33-0.67h-0.44c-0.81 0.03-1.61 0.25-2.34 0.67l-42.39 24.38c-1.58 0.91-2.56 2.6-2.56 4.45l0.09 65.65c0 0.91 0.47 1.76 1.28 2.21 0.79 0.47 1.76 0.47 2.54 0l25.19-14.42c1.59-0.95 2.56-2.61 2.56-4.44v-30.67c0-1.83 0.97-3.52 2.56-4.43l10.73-6.17c0.8-0.46 1.67-0.69 2.57-0.69 0.87 0 1.77 0.23 2.55 0.69l10.72 6.17c1.59 0.91 2.56 2.6 2.56 4.43v30.67c0 1.82 0.98 3.5 2.57 4.44l25.18 14.42c0.79 0.47 1.78 0.47 2.56 0 0.78-0.45 1.27-1.3 1.27-2.21l0.08-65.65z"/>
<path class="st1" d="m298.71 0.17c-0.79-0.44-1.76-0.43-2.54 0.03s-1.26 1.3-1.26 2.21v65.01c0 0.64-0.34 1.23-0.89 1.55s-1.24 0.32-1.79 0l-10.62-6.11c-1.58-0.91-3.53-0.91-5.12 0l-42.4 24.46c-1.59 0.91-2.56 2.6-2.56 4.43v48.93c0 1.83 0.98 3.52 2.56 4.43l42.4 24.48c1.59 0.91 3.54 0.91 5.12 0l42.41-24.48c1.58-0.92 2.56-2.6 2.56-4.43v-121.96c0-1.85-1-3.57-2.63-4.47l-25.24-14.08zm-3.93 124.43c0 0.46-0.24 0.88-0.64 1.11l-14.56 8.39c-0.4 0.23-0.88 0.23-1.28 0l-14.56-8.39c-0.4-0.23-0.64-0.65-0.64-1.11v-16.8c0-0.46 0.24-0.88 0.64-1.11l14.56-8.4c0.4-0.23 0.88-0.23 1.28 0l14.56 8.4c0.4 0.23 0.64 0.65 0.64 1.11v16.8z"/>
<path class="st1" d="m439.91 107.36c1.58-0.92 2.55-2.6 2.55-4.42v-11.86c0-1.82-0.97-3.51-2.55-4.43l-42.13-24.45c-1.59-0.92-3.54-0.92-5.13-0.01l-42.39 24.46c-1.58 0.91-2.56 2.6-2.56 4.43v48.92c0 1.84 0.99 3.54 2.59 4.45l42.12 23.99c1.55 0.89 3.46 0.9 5.02 0.03l25.48-14.15c0.81-0.45 1.31-1.3 1.32-2.22s-0.48-1.78-1.28-2.24l-42.66-24.47c-0.8-0.46-1.29-1.3-1.29-2.22v-15.33c0-0.91 0.49-1.76 1.28-2.22l13.28-7.65c0.79-0.46 1.77-0.46 2.56 0l13.28 7.65c0.79 0.46 1.28 1.3 1.28 2.22v12.06c0 0.92 0.49 1.76 1.28 2.22s1.77 0.45 2.56-0.01l25.39-14.75z"/>
<path class="st2" d="m394.59 105.07c0.3-0.18 0.68-0.18 0.98 0l8.14 4.69c0.3 0.18 0.49 0.5 0.49 0.85v9.39c0 0.35-0.19 0.68-0.49 0.85l-8.14 4.69c-0.3 0.18-0.68 0.18-0.98 0l-8.13-4.69c-0.3-0.18-0.49-0.5-0.49-0.85v-9.39c0-0.35 0.19-0.68 0.49-0.85l8.13-4.69z"/>
<defs>
<path id="a" d="m165.7 62.45c-1.57-0.91-3.52-0.91-5.09 0l-42.16 24.32c-1.58 0.91-2.55 2.59-2.55 4.41v48.68c0 1.82 0.97 3.5 2.55 4.41l42.16 24.34c1.58 0.91 3.52 0.91 5.09 0l42.15-24.34c1.57-0.91 2.55-2.59 2.55-4.41v-48.68c0-1.82-0.97-3.5-2.55-4.41l-42.15-24.32z"/>
</defs>
<linearGradient id="c" x1="180.28" x2="142.21" y1="80.565" y2="158.23" gradientUnits="userSpaceOnUse">
<stop stop-color="#3F873F" offset="0"/>
<stop stop-color="#3F8B3D" offset=".3296"/>
<stop stop-color="#3E9638" offset=".6367"/>
<stop stop-color="#3DA92E" offset=".9341"/>
<stop stop-color="#3DAE2B" offset="1"/>
</linearGradient>
<use clip-rule="evenodd" fill="url(#c)" fill-rule="evenodd" xlink:href="#a"/>
<clipPath id="b">
<use xlink:href="#a"/>
</clipPath>
<g clip-path="url(#b)">
<path class="st4" d="m160.52 62.45-42.25 24.32c-1.58 0.91-2.72 2.59-2.72 4.41v48.68c0 1.2 0.51 2.34 1.31 3.24l47.47-81.17c-1.28-0.32-2.66-0.14-3.81 0.52z"/>
<path class="st4" d="m164.56 169.1c0.41-0.11 0.81-0.28 1.19-0.49l42.21-24.34c1.57-0.91 2.65-2.59 2.65-4.41v-48.68c0-1.34-0.6-2.6-1.54-3.53l-44.51 81.45z"/>
<linearGradient id="d" x1="156.73" x2="263.6" y1="121.21" y2="42.255" gradientUnits="userSpaceOnUse">
<stop stop-color="#3F873F" offset=".1376"/>
<stop stop-color="#52A044" offset=".4016"/>
<stop stop-color="#64B749" offset=".7129"/>
<stop stop-color="#6ABF4B" offset=".9081"/>
</linearGradient>
<path class="st5" d="m207.93 86.77-42.28-24.32c-0.42-0.24-0.86-0.41-1.32-0.53l-47.47 81.17c0.41 0.46 0.89 0.86 1.42 1.17l42.35 24.34c1.2 0.69 2.63 0.85 3.93 0.49l44.51-81.45c-0.34-0.33-0.72-0.63-1.14-0.87z"/>
</g>
<g clip-path="url(#b)">
<path class="st4" d="m210.61 139.86v-48.68c0-1.82-1.1-3.5-2.67-4.41l-42.28-24.32c-0.49-0.28-1.01-0.46-1.55-0.57l46.35 79.14c0.09-0.37 0.15-0.76 0.15-1.16z"/>
<path class="st4" d="m118.26 86.77c-1.58 0.91-2.72 2.59-2.72 4.41v48.68c0 1.82 1.16 3.5 2.74 4.41l42.35 24.34c1 0.57 2.15 0.78 3.26 0.63l-45.37-82.61-0.26 0.14z"/>
<linearGradient id="f" x1="114.4" x2="211.89" y1="53.679" y2="53.679" gradientUnits="userSpaceOnUse">
<stop stop-color="#6ABF4B" offset=".0919"/>
<stop stop-color="#64B749" offset=".2871"/>
<stop stop-color="#52A044" offset=".5984"/>
<stop stop-color="#3F873F" offset=".8624"/>
</linearGradient>
<polygon points="159.2 53.51 158.62 53.85 159.39 53.85" fill="url(#f)"/>
<linearGradient id="e" x1="114.4" x2="211.89" y1="115.51" y2="115.51" gradientUnits="userSpaceOnUse">
<stop stop-color="#6ABF4B" offset=".0919"/>
<stop stop-color="#64B749" offset=".2871"/>
<stop stop-color="#52A044" offset=".5984"/>
<stop stop-color="#3F873F" offset=".8624"/>
</linearGradient>
<path d="m207.96 144.27c1.23-0.71 2.15-1.89 2.49-3.24l-46.35-79.15c-1.21-0.24-2.49-0.06-3.58 0.57l-42 24.17 45.37 82.61c0.65-0.09 1.28-0.3 1.86-0.63l42.21-24.33z" fill="url(#e)"/>
<linearGradient id="i" x1="114.4" x2="211.89" y1="143.33" y2="143.33" gradientUnits="userSpaceOnUse">
<stop stop-color="#6ABF4B" offset=".0919"/>
<stop stop-color="#64B749" offset=".2871"/>
<stop stop-color="#52A044" offset=".5984"/>
<stop stop-color="#3F873F" offset=".8624"/>
</linearGradient>
<polygon points="211.89 143.48 211.61 143.01 211.61 143.65" fill="url(#i)"/>
<linearGradient id="h" x1="114.4" x2="211.89" y1="155.9" y2="155.9" gradientUnits="userSpaceOnUse">
<stop stop-color="#6ABF4B" offset=".0919"/>
<stop stop-color="#64B749" offset=".2871"/>
<stop stop-color="#52A044" offset=".5984"/>
<stop stop-color="#3F873F" offset=".8624"/>
</linearGradient>
<path d="m207.96 144.27-42.21 24.34c-0.58 0.33-1.21 0.54-1.86 0.63l0.84 1.53 46.88-27.12v-0.64l-1.16-1.98c-0.35 1.34-1.26 2.53-2.49 3.24z" fill="url(#h)"/>
<linearGradient id="g" x1="226.08" x2="165.97" y1="78.245" y2="200.86" gradientUnits="userSpaceOnUse">
<stop stop-color="#3F873F" offset="0"/>
<stop stop-color="#3F8B3D" offset=".3296"/>
<stop stop-color="#3E9638" offset=".6367"/>
<stop stop-color="#3DA92E" offset=".9341"/>
<stop stop-color="#3DAE2B" offset="1"/>
</linearGradient>
<path d="m207.96 144.27-42.21 24.34c-0.58 0.33-1.21 0.54-1.86 0.63l0.84 1.53 46.88-27.12v-0.64l-1.16-1.98c-0.35 1.34-1.26 2.53-2.49 3.24z" fill="url(#g)"/>
</g>
</svg>